<?xml version="1.0" encoding="utf-8"?>
<!-- Generator: Adobe Illustrator 27.5.0, SVG Export Plug-In . SVG Version: 6.00 Build 0)  -->
<svg version="1.1" id="Layer_1" xmlns="http://www.w3.org/2000/svg" xmlns:xlink="http://www.w3.org/1999/xlink" x="0px" y="0px"
	 viewBox="0 0 58 69" style="enable-background:new 0 0 58 69;" xml:space="preserve">
<g>
	<path d="M6.5,28.7c0.9-0.1,2.1-0.2,3.3-0.2c2.2,0,3.8,0.5,4.8,1.5c1.1,1,1.7,2.4,1.7,4.3c0,2-0.6,3.6-1.7,4.7
		c-1.1,1.1-3,1.7-5.3,1.7c-1.1,0-2-0.1-2.8-0.1V28.7z M8,39.3c0.4,0.1,1,0.1,1.6,0.1c3.3,0,5.1-1.8,5.1-5.1c0-2.8-1.6-4.6-4.8-4.6
		c-0.8,0-1.4,0.1-1.8,0.2V39.3z"/>
	<path d="M24.5,34.9h-4.7v4.3H25v1.3h-6.7v-12h6.5v1.3h-4.9v3.8h4.7V34.9z"/>
	<path d="M37.1,35.2c-0.1-1.7-0.2-3.7-0.2-5.2h-0.1c-0.4,1.4-0.9,2.9-1.5,4.5l-2.1,5.8h-1.2l-1.9-5.7c-0.6-1.7-1-3.2-1.4-4.7h0
		c0,1.5-0.1,3.5-0.2,5.3l-0.3,5.1h-1.5l0.8-12h2l2,5.8c0.5,1.5,0.9,2.8,1.2,4h0.1c0.3-1.2,0.7-2.5,1.3-4l2.1-5.8h2l0.7,12h-1.5
		L37.1,35.2z"/>
	<path d="M51.5,34.4c0,4.1-2.5,6.3-5.6,6.3c-3.2,0-5.4-2.5-5.4-6.1c0-3.8,2.4-6.3,5.6-6.3C49.4,28.3,51.5,30.8,51.5,34.4z
		 M42.3,34.6c0,2.6,1.4,4.8,3.8,4.8c2.5,0,3.8-2.3,3.8-5c0-2.4-1.2-4.9-3.8-4.9C43.5,29.6,42.3,31.9,42.3,34.6z"/>
</g>
</svg>
