<?xml version="1.0" encoding="utf-8"?>
<!-- Generator: Adobe Illustrator 27.5.0, SVG Export Plug-In . SVG Version: 6.00 Build 0)  -->
<svg version="1.1" id="Layer_1" xmlns="http://www.w3.org/2000/svg" xmlns:xlink="http://www.w3.org/1999/xlink" x="0px" y="0px"
	 viewBox="0 0 192 69" style="enable-background:new 0 0 192 69;" xml:space="preserve">
<g>
	<path d="M34.8,17.6h4.8v24.9h17.1l-0.7,4H34.8V17.6z"/>
	<path d="M89.2,32c0,8.1-5.5,15.1-15.3,15.1c-9.4,0-15.2-6.7-15.2-15.1c0-8,6-14.9,15.3-14.9C83.4,17,89.2,24,89.2,32z M63.7,31.9
		c0,6,3.5,11.3,10.3,11.3c6.8,0,10.1-5.3,10.1-11.1c0-5.8-3.5-11.1-10.4-11.1C67.3,20.9,63.7,26.1,63.7,31.9z"/>
	<path d="M122.8,46.5h-3.6c-0.1-0.7-0.3-2.7-0.4-4c-1.9,2.9-4.7,4.6-10.3,4.6c-9.2,0-14.7-6.1-14.7-14.9c0-8.5,5.7-15.1,15.5-15.1
		c8.8,0,12.6,4.6,13.6,8.8H118c-1-2.4-3.3-5-8.7-5c-6.9,0-10.4,4.9-10.4,11.1c0,6.5,3.6,11.4,10.4,11.4c5.8,0,8.9-2.9,8.9-8.1v-0.8
		h-8.8v-3.9h13.4V46.5z"/>
	<path d="M159,32c0,8.1-5.5,15.1-15.3,15.1c-9.4,0-15.2-6.7-15.2-15.1c0-8,6-14.9,15.3-14.9C153.2,17,159,24,159,32z M133.5,31.9
		c0,6,3.5,11.3,10.3,11.3c6.8,0,10.1-5.3,10.1-11.1c0-5.8-3.5-11.1-10.4-11.1C137.1,20.9,133.5,26.1,133.5,31.9z"/>
</g>
</svg>
