<?xml version="1.0" encoding="utf-8"?>
<!-- Generator: Adobe Illustrator 27.5.0, SVG Export Plug-In . SVG Version: 6.00 Build 0)  -->
<svg version="1.1" id="Layer_1" xmlns="http://www.w3.org/2000/svg" xmlns:xlink="http://www.w3.org/1999/xlink" x="0px" y="0px"
	 viewBox="0 0 139 50" style="enable-background:new 0 0 139 50;" xml:space="preserve">
<style type="text/css">
	.st0{fill:#FFFFFF;}
</style>
<g>
	<path class="st0" d="M28.6,13.7h5.1V32h8.9v4.3h-14V13.7z"/>
	<path class="st0" d="M44.2,24.9c0-7.4,4.2-11.6,10.2-11.6c6.1,0,10.2,4.2,10.2,11.6c0,7.4-4.2,11.8-10.2,11.8
		C48.4,36.7,44.2,32.3,44.2,24.9z M59.5,24.9c0-4.5-1.9-7.2-5-7.2c-3.1,0-5,2.7-5,7.2s1.9,7.4,5,7.4C57.5,32.3,59.5,29.4,59.5,24.9z
		"/>
	<path class="st0" d="M67.9,25.1c0-7.5,5-11.8,11-11.8c3.3,0,5.6,1.4,7.1,2.9l-2.7,3.3c-1.1-1-2.3-1.8-4.3-1.8
		c-3.5,0-5.9,2.7-5.9,7.2c0,4.6,2.1,7.3,6.3,7.3c0.9,0,1.8-0.2,2.4-0.7v-3.9h-3.7v-4.2h8.3v10.4c-1.6,1.5-4.3,2.7-7.4,2.7
		C72.7,36.7,67.9,32.7,67.9,25.1z"/>
	<path class="st0" d="M89.9,24.9c0-7.4,4.2-11.6,10.2-11.6s10.2,4.2,10.2,11.6c0,7.4-4.2,11.8-10.2,11.8S89.9,32.3,89.9,24.9z
		 M105.2,24.9c0-4.5-1.9-7.2-5-7.2s-5,2.7-5,7.2s1.9,7.4,5,7.4S105.2,29.4,105.2,24.9z"/>
</g>
</svg>
